<?xml version="1.0" encoding="UTF-8"?>
<svg width="848px" height="288px" viewBox="0 0 848 288" version="1.1" xmlns="http://www.w3.org/2000/svg" xmlns:xlink="http://www.w3.org/1999/xlink">
    <!-- Generator: Sketch 46.2 (44496) - http://www.bohemiancoding.com/sketch -->
    <title>trendyol</title>
    <desc>Created with Sketch.</desc>
    <defs></defs>
    <g id="Page-1" stroke="none" stroke-width="1" fill="none" fill-rule="evenodd">
        <g id="trendyol" fill-rule="nonzero">
            <path d="M302.9,200.6 L207,200.6 C211.4,218.6 226,232.2 245,232.2 C255.7,232.2 266.2,227.6 273.2,219.7 L296.4,220.2 C286.2,239.6 266.7,252 244.1,252 C211.1,252 185.2,223.4 185.2,191 C185.2,157.6 210.7,130.2 244.6,130.2 C277.4,130.2 303.6,157.2 303.6,189.8 C303.5,193.3 303.3,197.1 302.9,200.6 L302.9,200.6 Z M244.3,150 C225.5,150 208.1,164.8 206.9,183.9 L281.7,183.9 C280.5,164.9 263.2,150 244.3,150 L244.3,150 Z" id="Shape" fill="#FFFFFF"></path>
            <path d="M399,249.1 L399,186.2 C399,166.6 393.1,150 370.1,150 C348.8,150 339.6,166.5 339.6,186 L339.6,249.1 L317.9,249.1 L317.9,133.3 L338.2,133.3 L338.2,145.6 L338.6,145.6 C347,134.5 359.1,130.1 372.5,130.1 C389,130.1 404.5,136.6 413.5,150.8 C419.1,159.6 420.8,170.2 420.8,180.5 L420.8,249.1 L399,249.1 L399,249.1 Z" id="Shape" fill="#FFFFFF"></path>
            <path d="M536.3,249.1 L536.3,232.6 L535.9,232.6 C526.3,246 511,252 494.9,252 C460.2,252 434.7,226.1 434.7,191.6 C434.7,156.9 459.8,130.1 494.9,130.1 C509.5,130.1 525,135.7 534.2,147.4 L534.6,147.4 L534.6,94.4 L556.3,94.4 L556.3,249.1 L536.3,249.1 L536.3,249.1 Z M496.1,150 C473.1,150 456.4,168.8 456.4,191.4 C456.4,213.1 473.8,232.2 495.9,232.2 C518.5,232.2 536.2,213.8 536.2,191.4 C536.3,168.2 519.8,150 496.1,150 L496.1,150 Z" id="Shape" fill="#FFFFFF"></path>
            <polygon id="Shape" fill="#FFFFFF" points="619.2 287.8 596.7 287.8 613.6 246.8 567.4 133.3 590.8 133.3 624.9 223.2 659.8 133.3 683.2 133.3"></polygon>
            <path d="M745.1,252 C711,252 682.6,224.6 682.6,190.3 C682.6,156.2 711.7,130.1 745.1,130.1 C779,130.1 807.6,156.4 807.6,190.7 C807.6,223.8 780.2,252 745.1,252 L745.1,252 Z M745.1,150 C722.5,150 704.3,168.4 704.3,191 C704.3,213.6 722.5,232.2 745.1,232.2 C767.9,232.2 785.9,213.4 785.9,190.8 C785.8,168.2 767.6,150 745.1,150 L745.1,150 Z" id="Shape" fill="#FFFFFF"></path>
            <polygon id="Shape" fill="#FFFFFF" points="825.3 249.1 825.3 94.4 847.1 94.4 847.1 249.1"></polygon>
            <path d="M21.5,226.3 C22.4,230 23.6,233 25,235.3 C26.4,237.6 28.2,239.6 30.3,241.5 C37.2,247.5 45.9,250.6 56.2,250.6 C66.4,250.6 76,248.1 84.7,243.3 L84.7,222.5 C75.7,227.8 67.1,230.5 59,230.5 C48,230.5 42.3,223.8 42.3,210.5 L42.3,153.8 L78.8,153.8 L78.8,133.7 L42.4,133.7 L42.4,96.5 L20.9,96.5 L20.9,133.6 L0,133.6 L0,153.7 L20,153.7 L20,205.1 C20,215.5 20.5,222.6 21.5,226.3 L21.5,226.3 Z" id="Shape" fill="#FFFFFF"></path>
            <path d="M153,152.7 C159.7,152.7 167.1,156.4 175,163.8 L186.8,144.2 C177.2,135.4 165.6,131.4 158.8,131.4 L157.3,131.4 C149.5,131.4 136.5,131.4 125.9,148.6 L125.5,149.3 L125.6,133.7 L103.1,133.7 L103.1,248.5 L125.6,248.5 L125.6,188.5 C125.6,178.9 128.3,170.5 133.7,163.4 C139.1,156.3 145.6,152.7 153,152.7 L153,152.7 Z" id="Shape" fill="#FFFFFF"></path>
            <path d="M622.2,107 C621.2,107.2 620.2,106.4 620,105.4 L614.2,69 C612.3,57.1 614.1,47.2 620.4,39.1 C626.5,31.1 635.6,26.3 647.2,24.4 L798.4,0.4 C799.4,0.2 800.4,1 800.6,2 L812.1,75 C812.3,76 811.5,77 810.5,77.2 L622.2,107 L622.2,107 Z" id="Shape" fill="#FF671B"></path>
            <path d="M672.8,68.5 C671.5,73.2 668,76.3 663.2,77.1 C657.1,78.1 650.1,74.5 648.7,65.7 C647.4,57.8 651.6,51.5 658.9,50.3 C663.7,49.5 667.6,51.3 670.7,55.5 L678,54.3 C674.7,47.2 666.1,43 657.9,44.3 C647.1,46.1 640.3,55.7 642.1,66.7 C643.9,77.8 653.4,84.8 664.1,83 C672.3,81.7 678.5,75.5 680,67.2 L672.8,68.5 L672.8,68.5 Z" id="Shape" fill="#FFFFFF"></path>
            <path d="M701,37.3 C690,39.1 682.5,49.1 684.3,59.7 C686.1,70.5 696.4,77.8 707.4,76 C718.4,74.2 725.8,64 724.1,53.3 C722.2,42.7 711.9,35.5 701,37.3 L701,37.3 Z M706.3,70 C699,71.2 692,66.2 690.8,58.7 C689.6,51.3 694.6,44.3 701.9,43.1 C709.2,41.9 716.2,46.9 717.4,54.2 C718.6,61.8 713.7,68.8 706.3,70 L706.3,70 Z" id="Shape" fill="#FFFFFF"></path>
            <path d="M788.6,61.7 L785,39.5 C783.4,29.8 776.9,24.8 767.5,26.4 C761.8,27.3 758.4,29.8 756.4,34.5 L756.2,34.9 L756,34.6 C753.3,30.7 747.7,29.7 743.6,30.3 C738.9,31.1 736.5,32.8 733.9,37 L733.8,37.1 L733.4,37.2 L732.7,33.2 L726.7,34.2 L732.7,71 L739.3,69.9 L736,49.3 C734.8,41.7 737.2,37.5 743.6,36.5 C746.8,36 749.4,36.8 751.3,38.9 C753.3,41.2 753.7,43.6 754.1,46.4 L757.5,66.9 L764.1,65.8 L760.7,45.3 C759.8,40 759.9,33.8 767.9,32.5 C773.8,31.5 777.6,35 778.8,42.4 L782.1,62.9 L788.6,61.7 L788.6,61.7 Z" id="Shape" fill="#FFFFFF"></path>
            <path d="M641,83.4 C641,86.3 638.6,88.7 635.7,88.7 C632.8,88.7 630.4,86.3 630.4,83.4 C630.4,80.5 632.8,78.1 635.7,78.1 C638.7,78 641,80.4 641,83.4 L641,83.4 Z" id="Shape" fill="#FFFFFF"></path>
        </g>
    </g>
</svg>